#!OML:ASF X:\für Bonn\!DataBase\2005_08_10_Bjorn_Final\c3d\bjorn.ASF
:FULLY-SPECIFIED
:DEGREES
153
root -0.653435 18.3411 15.5095 -549.613 19.3844 -538.258
lowerback -9.8585 2.50014 4.26121
upperback 7.94283 3.43176 -2.67515
thorax 14.8559 2.39059 -4.58077
lowerneck -2.65607 0.731031 8.70822
upperneck 19.0122 1.95623 -3.40106
head 6.30643 1.74532 -2.3719
rclavicle -5.47155e-014 -2.38542e-015
rhumerus 54.8147 18.5522 -78.6504
rradius 65.8914
rwrist 26.2581
rhand -48.397 35.8825
rfingers 7.12502
rthumb -21.0499 7.00493
lclavicle -5.47155e-014 -2.38542e-015
lhumerus 37.7941 -23.1208 90.508
lradius 68.6482
lwrist 39.4326
lhand -27.7194 -9.83928
lfingers 7.12502
lthumb -1.11487 20.1375
rfemur 365.241 -8.99118 -343.367
rtibia 35.1756
rfoot -27.5856 13.3387
rtoes -14.1841
lfemur -8.78292 -5.42902 -7.08278
ltibia 42.2094
lfoot -15.3077 3.82304
ltoes -25.1581
154
root -0.647852 18.3475 15.5117 -549.524 19.4985 -538.217
lowerback -9.67401 2.51854 4.34399
upperback 8.0223 3.45671 -2.64002
thorax 14.8415 2.41479 -4.58605
lowerneck -2.63807 0.807612 8.7153
upperneck 18.5649 2.01427 -3.47102
head 6.16589 1.73875 -2.39214
rclavicle 1.76918e-014 -3.02153e-014
rhumerus 54.6183 18.74 -78.617
rradius 66.0283
rwrist 26.4584
rhand -48.2854 35.4066
rfingers 7.12502
rthumb -20.9426 6.51715
lclavicle 1.76918e-014 -3.02153e-014
lhumerus 37.5887 -23.1085 90.56
lradius 68.5213
lwrist 39.6116
lhand -27.7108 -9.88506
lfingers 7.12502
lthumb -1.10661 20.0918
rfemur 365.186 -8.97895 -343.304
rtibia 35.0921
rfoot -27.5174 13.5211
rtoes -13.7134
lfemur -9.13368 -5.32584 -7.07727
ltibia 42.6985
lfoot -14.9485 4.30368
ltoes -25.7455
155
root -0.643711 18.3549 15.5148 -549.433 19.5825 -538.166
lowerback -9.47675 2.52389 4.42844
upperback 8.12045 3.46584 -2.59714
thorax 14.8388 2.43295 -4.58731
lowerneck -2.60203 0.888646 8.69246
upperneck 18.042 2.07123 -3.51987
head 5.99854 1.72776 -2.40075
rclavicle 9.44227e-015 -4.85035e-014
rhumerus 54.4362 18.9237 -78.5664
rradius 66.1698
rwrist 26.7287
rhand -48.2608 34.9654
rfingers 7.12502
rthumb -20.9189 6.07336
lclavicle 9.44227e-015 -4.85035e-014
lhumerus 37.3564 -23.0979 90.6313
lradius 68.4333
lwrist 39.7401
lhand -27.6596 -9.92825
lfingers 7.12502
lthumb -1.05716 20.0489
rfemur 365.134 -9.01202 -343.245
rtibia 34.9962
rfoot -27.4389 13.7437
rtoes -13.2422
lfemur -9.54596 -5.24465 -7.0692
ltibia 43.2513
lfoot -14.5824 4.7994
ltoes -26.3991
156
root -0.640864 18.3624 15.5182 -549.319 19.7017 -538.126
lowerback -9.26915 2.53985 4.52518
upperback 8.19908 3.48835 -2.56689
thorax 14.81 2.45807 -4.60745
lowerneck -2.56267 0.966817 8.69688
upperneck 17.5219 2.12898 -3.59979
head 5.83275 1.71813 -2.42378
rclavicle -3.13583e-014 6.44062e-014
rhumerus 54.1754 19.1227 -78.5479
rradius 66.3472
rwrist 27.0664
rhand -48.2808 34.7271
rfingers 7.12502
rthumb -20.9382 5.83717
lclavicle -3.13583e-014 6.44062e-014
lhumerus 37.0762 -23.0993 90.6582
lradius 68.4228
lwrist 39.8877
lhand -27.7137 -9.8669
lfingers 7.12502
lthumb -1.10937 20.11
rfemur 365.053 -9.00195 -343.184
rtibia 34.9025
rfoot -27.3866 13.9017
rtoes -12.8928
lfemur -10.0122 -5.09148 -7.07263
ltibia 43.8548
lfoot -14.1976 5.27624
ltoes -26.6403
157
root -0.639001 18.3691 15.522 -549.223 19.8001 -538.077
lowerback -9.02035 2.55137 4.64257
upperback 8.2815 3.50671 -2.54616
thorax 14.7616 2.48478 -4.65228
lowerneck -2.48807 1.0345 8.71581
upperneck 16.9565 2.17128 -3.67216
head 5.64671 1.70212 -2.44783
rclavicle 2.25621e-014 -5.56597e-015
rhumerus 53.897 19.3199 -78.5244
rradius 66.4987
rwrist 27.3438
rhand -48.3209 34.5916
rfingers 7.12502
rthumb -20.9767 5.70594
lclavicle 2.25621e-014 -5.56597e-015
lhumerus 36.7305 -23.1418 90.6943
lradius 68.422
lwrist 39.91
lhand -27.7704 -9.84833
lfingers 7.12502
lthumb -1.16415 20.1282
rfemur 364.991 -8.96602 -343.107
rtibia 34.8112
rfoot -27.329 14.1029
rtoes -12.3486
lfemur -10.5051 -4.95426 -7.07168
ltibia 44.5159
lfoot -13.8653 5.72405
ltoes -26.3538
158
root -0.639502 18.3751 15.5262 -549.137 19.9051 -538.034
lowerback -8.7428 2.54956 4.7563
upperback 8.3742 3.50927 -2.51422
thorax 14.7037 2.50363 -4.68676
lowerneck -2.39766 1.11954 8.69035
upperneck 16.3126 2.23413 -3.7409
head 5.43515 1.69053 -2.46228
rclavicle -3.85642e-014 3.26007e-014
rhumerus 53.6463 19.576 -78.4601
rradius 66.6766
rwrist 27.5525
rhand -48.3604 34.4691
rfingers 7.12502
rthumb -21.0146 5.58762
lclavicle -3.85642e-014 3.26007e-014
lhumerus 36.3591 -23.1449 90.7477
lradius 68.4732
lwrist 39.9276
lhand -27.8495 -9.85412
lfingers 7.12502
lthumb -1.24052 20.122
rfemur 364.921 -8.95819 -343.061
rtibia 34.7396
rfoot -27.2646 14.3324
rtoes -11.7954
lfemur -11.0105 -4.79583 -7.09293
ltibia 45.2161
lfoot -13.5141 6.15585
ltoes -25.7733
159
root -0.640064 18.3792 15.5311 -549.048 19.9915 -537.988
lowerback -8.43651 2.54638 4.86002
upperback 8.45047 3.51259 -2.48479
thorax 14.6073 2.52035 -4.7196
lowerneck -2.24525 1.19501 8.68332
upperneck 15.6155 2.28702 -3.80383
head 5.19719 1.67638 -2.47891
rclavicle -2.75317e-014 -2.38542e-015
rhumerus 53.3442 19.8188 -78.421
rradius 66.8591
rwrist 27.7304
rhand -48.3992 34.48
rfingers 7.12502
rthumb -21.052 5.60272
lclavicle -2.75317e-014 -2.38542e-015
lhumerus 35.8942 -23.1968 90.7935
lradius 68.5872
lwrist 39.8773
lhand -27.9888 -9.90246
lfingers 7.12502
lthumb -1.37514 20.0729
rfemur 364.849 -8.88744 -342.978
rtibia 34.6778
rfoot -27.26 14.4457
rtoes -11.4034
lfemur -11.557 -4.61377 -7.11146
ltibia 45.9614
lfoot -13.1322 6.55519
ltoes -25.0705
160
root -0.642518 18.3818 15.5373 -548.942 20.0698 -537.946
lowerback -8.10783 2.52718 4.94722
upperback 8.51272 3.49424 -2.4408
thorax 14.4739 2.52208 -4.73266
lowerneck -2.09908 1.27425 8.63236
upperneck 14.9344 2.35081 -3.86989
head 4.96647 1.66705 -2.48884
rclavicle 2.72335e-014 1.66979e-014
rhumerus 53.0834 20.1053 -78.3049
rradius 66.9989
rwrist 27.7973
rhand -48.4655 34.4951
rfingers 7.12502
rthumb -21.1157 5.62489
lclavicle 2.72335e-014 1.66979e-014
lhumerus 35.3539 -23.2049 90.8918
lradius 68.8044
lwrist 39.8295
lhand -28.116 -9.82759
lfingers 7.12502
lthumb -1.49795 20.1469
rfemur 364.753 -8.88017 -342.925
rtibia 34.6249
rfoot -27.2266 14.6517
rtoes -10.7939
lfemur -12.1555 -4.41022 -7.13934
ltibia 46.7383
lfoot -12.7101 6.96109
ltoes -24.452
